<svg width="18" height="14" viewBox="0 0 18 14" fill="none" xmlns="http://www.w3.org/2000/svg">
<path fill-rule="evenodd" clip-rule="evenodd" d="M1.09583 5.89515C0.485636 6.50534 0.485634 7.49466 1.09583 8.10485L6.40833 13.4174C6.70135 13.7104 7.09878 13.875 7.51318 13.875H15.2499C16.6306 13.875 17.7499 12.7557 17.7499 11.375V2.625C17.7499 1.24429 16.6306 0.125 15.2499 0.125L7.51318 0.125C7.09878 0.125 6.70135 0.28962 6.40833 0.582646L1.09583 5.89515ZM9.44194 4.68306C9.19786 4.43898 8.80214 4.43898 8.55806 4.68306C8.31398 4.92714 8.31398 5.32286 8.55806 5.56694L9.99112 7L8.55806 8.43306C8.31398 8.67714 8.31398 9.07286 8.55806 9.31694C8.80214 9.56102 9.19786 9.56102 9.44194 9.31694L10.875 7.88388L12.3081 9.31694C12.5521 9.56102 12.9479 9.56102 13.1919 9.31694C13.436 9.07286 13.436 8.67714 13.1919 8.43306L11.7589 7L13.1919 5.56694C13.436 5.32286 13.436 4.92714 13.1919 4.68306C12.9479 4.43898 12.5521 4.43898 12.3081 4.68306L10.875 6.11612L9.44194 4.68306Z" fill="#AAAEBB"/>
</svg>
