<svg width="36" height="36" viewBox="0 0 36 36" fill="none" xmlns="http://www.w3.org/2000/svg">
<rect x="0.5" y="0.5" width="35" height="35" rx="17.5" fill="#FEFCF6"/>
<rect x="0.5" y="0.5" width="35" height="35" rx="17.5" stroke="#EDB525"/>
<path fill-rule="evenodd" clip-rule="evenodd" d="M18 9.25C15.5838 9.25 13.625 11.2088 13.625 13.625V16.125C12.2443 16.125 11.125 17.2443 11.125 18.625V24.25C11.125 25.6307 12.2443 26.75 13.625 26.75H22.375C23.7557 26.75 24.875 25.6307 24.875 24.25V18.625C24.875 17.2443 23.7557 16.125 22.375 16.125V13.625C22.375 11.2088 20.4162 9.25 18 9.25ZM21.125 16.125V13.625C21.125 11.8991 19.7259 10.5 18 10.5C16.2741 10.5 14.875 11.8991 14.875 13.625V16.125H21.125Z" fill="#EDB525"/>
</svg>
